PathFileType	4	(X/Y/Z)	D:\TRACE\spot_10-12-23\spot_arm_body_motion_1_2-platform.trc
DataRate	CameraRate	NumFrames	NumMarkers	Units	OrigDataRate	OrigDataStartFrame	OrigNumFrames
100.00	100.00	      24	5	mm	100.00	3501	      7000
Frame#	Time	Left_Front			Right_Front			Left_Aft			Right_Aft			Post			
		X1	Y1	Z1	X2	Y2	Z2	X3	Y3	Z3	X4	Y4	Z4	X5	Y5	Z5	

3501	35.000	-819.48407	-3.02561	-655.50171	747.75391	-5.24903	-630.56085	-748.27795	20.61351	483.19760	661.66901	21.66652	583.31165	-17.09844	722.49457	-979.81342	
3502	35.010	-820.08881	-2.90232	-655.55267	747.03436	-4.97917	-630.46844	-749.11072	20.30403	483.22073	660.87170	21.30536	583.46021	-17.97033	722.98053	-979.14319	
3503	35.020	-821.09644	-2.08338	-655.38275	746.27570	-4.32493	-630.47711	-749.71967	20.00249	483.25912	660.12958	20.95498	583.47845	-18.48505	723.80164	-978.70313	
3504	35.030	-821.76062	-1.53557	-655.22711	745.66406	-3.83344	-630.47760	-750.30347	19.63149	483.31772	659.50012	20.59452	583.51202	-19.45362	724.25989	-979.14600	
3505	35.040	-822.21954	-1.28977	-655.22668	744.97900	-3.46376	-630.31189	-751.10889	19.46209	483.41669	658.74915	20.36284	583.67627	-19.87211	724.96582	-978.52667	
3506	35.050	-822.90723	-0.88094	-655.11969	744.32880	-3.01967	-630.15625	-751.95300	19.19446	483.42194	658.20880	19.97438	583.77771	-20.77553	725.59521	-978.37933	
3507	35.060	-823.65381	-0.46614	-655.01819	743.51953	-2.38351	-630.02130	-752.50732	18.94367	483.53433	657.47675	19.43043	583.96301	-21.37046	726.32867	-978.25439	
3508	35.070	-824.35651	0.22166	-654.93683	743.14240	-2.09772	-629.90918	-753.10004	18.62797	483.65582	656.76605	19.08058	584.04852	-21.94830	726.98334	-978.07788	
3509	35.080	-824.95654	0.80879	-654.83875	742.40308	-1.61429	-629.83136	-753.85065	18.32993	483.78067	656.27258	18.86847	584.29749	-22.59621	727.71002	-977.64691	
3510	35.090	-825.54437	1.23830	-654.74353	741.75964	-1.14934	-629.76190	-754.46942	18.10494	483.96555	655.67352	18.48654	584.34790	-23.20305	728.45197	-977.03021	
3511	35.100	-826.02240	1.39433	-654.60083	741.17004	-0.68170	-629.66583	-754.98950	17.77501	484.04636	655.10138	18.06183	584.42755	-23.63248	729.09894	-976.66980	
3512	35.110	-826.67249	1.71862	-654.52179	740.62329	-0.31379	-629.63855	-755.45831	17.40228	484.06113	654.36658	17.62105	584.55994	-23.98054	729.86835	-975.45898	
3513	35.120	-827.34180	2.26694	-654.58319	740.06146	0.17330	-629.52289	-755.93109	17.10519	484.16681	653.88141	17.42531	584.67981	-25.31877	730.42389	-975.61176	
3514	35.130	-827.88177	2.88072	-654.44366	739.55054	0.53642	-629.45300	-756.58258	16.67866	484.34042	653.40973	17.16250	584.76184	-25.93299	731.00751	-974.65173	
3515	35.140	-828.35474	3.39152	-654.27820	739.04401	1.06352	-629.27856	-757.14240	16.41551	484.55759	652.90186	16.73638	584.82068	-25.94095	731.83508	-973.29553	
3516	35.150	-828.75446	3.76986	-654.17816	738.49524	1.54946	-629.27765	-757.45874	16.19728	484.72171	652.40161	16.22920	584.89258	-26.33679	732.40955	-972.13690	
3517	35.160	-829.27631	4.15121	-654.02570	737.92194	1.88818	-629.19861	-757.91956	15.94468	484.79907	651.97681	15.83218	585.01892	-27.15270	732.93408	-971.68726	
3518	35.170	-829.67517	4.62012	-653.89606	737.58545	2.23174	-629.17407	-758.40155	15.59303	484.95776	651.54108	15.52037	585.13403	-27.37980	733.74664	-970.19720	
3519	35.180	-829.99432	4.99532	-653.85657	737.17175	2.72467	-629.01971	-758.79950	15.24976	485.13452	651.05853	15.20810	585.24408	-28.35750	734.45062	-970.10992	
3520	35.190	-830.40735	5.51788	-653.79694	736.80841	3.20931	-628.82605	-759.25439	15.01754	485.22333	650.67365	14.87917	585.30786	-28.12798	735.08893	-968.88519	
3521	35.200	-830.98187	6.28297	-653.59290	736.49017	3.74084	-628.67444	-759.62506	14.76367	485.28506	650.30298	14.37038	585.40076	-28.49154	735.88788	-968.31360	
3522	35.210	-831.21106	6.49956	-653.49402	736.13593	4.15897	-628.64191	-759.94727	14.45296	485.34781	649.98834	14.08312	585.52240	-29.27871	736.54669	-968.42688	
3523	35.220	-831.46539	6.91133	-653.45563	735.79700	4.64283	-628.57886	-760.20966	14.11883	485.36041	649.74707	13.71316	585.57532	-29.15999	737.06348	-967.67102	
3524	35.230	-831.70544	7.38645	-653.35211	735.53912	5.12719	-628.48492	-760.35199	13.74718	485.42776	649.48071	13.34970	585.75079	-29.34874	737.78674	-967.47083	
